<svg xmlns="http://www.w3.org/2000/svg" viewBox="0 0 40 40"><g fill="none"><ellipse cx="19.9" cy="20" fill="#FF8C00" rx="19.9" ry="20"/><path fill="#FFF" d="M19.9 5.6c-6 0-10.7 4.9-10.7 10.8s.2 2.4.5 3.5q.6 1.3 2 1 1.1-.6.9-2-.5-1.2-.4-2.7c0-4 3.3-7.3 7.3-7.5a8 8 0 0 1 8.2 7.8c0 4.4-3.3 7.5-7.3 7.7l-2.3.2-.8.2q-.2 0-.2-.2l.3-1.2 1.3-6.5q.2-1.4-1-1.8-1.5-.2-1.9 1.2l-3.4 15.8q-.1 1.3 1.2 1.8 1.4.2 1.7-1.1l.5-2.3a4 4 0 0 1 3.2-3l1.7-.1a10.8 10.8 0 0 0-.8-21.6m.8 24.9q-1.7-.2-2.2 1.4a1.8 1.8 0 0 0 3.6.8q.2-1.7-1.4-2.2"/></g></svg>