<svg xmlns="http://www.w3.org/2000/svg" viewBox="0 0 40 40"><g fill="none" fill-rule="evenodd"><rect width="40" height="40" fill="#5570FF" rx="4"/><path fill="#FFF" fill-rule="nonzero" d="M11 14a13.6 13.6 0 0 1 19.2 0l.6.7q.4.4 0 1l-2.2 2.1q-.2.3-.5 0l-.8-.8a9.4 9.4 0 0 0-13.5 0l-1 .9q-.1.2-.4 0l-2.2-2.2a1 1 0 0 1 0-1zm23.8 4.2 2 2q.4.4 0 .9l-8.9 8.7q-.5.4-1 0l-6.3-6.2h-.2L14 29.8q-.5.4-1 0l-8.9-8.7a1 1 0 0 1 0-1l2-1.9q.4-.4 1 0l6.3 6.2h.2l6.3-6.2q.5-.4 1 0l6.3 6.2h.2l6.4-6.2q.4-.4 1 0"/></g></svg>