<svg xmlns="http://www.w3.org/2000/svg" viewBox="0 0 40 40"><g fill="none" fill-rule="evenodd"><path fill="#FD4848" d="M31.4 22.3c.4.8 1.5 1.1 2.1.5l1.2-1.2a3.1 3.1 0 0 1 4.4 4.4l-9.5 9.5a12.5 12.5 0 0 1-19.5-.3L1 26a3.1 3.1 0 1 1 4.4-4.4l1.2 1.1c.6.7 1.7.4 2.1-.4l.1-.5V7.5a3.1 3.1 0 0 1 6.3 0v7.2q.2 1 1.2.9.6-.2.7-.9V3.1a3.1 3.1 0 0 1 6.2 0v11.6q0 .7.7.9 1 .1 1.2-.9V7.5a3.1 3.1 0 0 1 6.3 0z"/><path fill="#D5FF5C" fill-rule="nonzero" d="M30 28.7S25.5 35 20 35s-10-6.3-10-6.3 4.5-6.2 10-6.2 10 6.2 10 6.2"/><path stroke="#FD4848" stroke-width=".6" d="M24.7 28.8a4.7 4.7 0 1 1-9.4 0 4.7 4.7 0 0 1 9.4 0Z"/><path stroke="#FD4848" stroke-width=".6" d="M22.8 28.8a2.8 2.8 0 1 1-5.6 0 2.8 2.8 0 0 1 5.6 0Z"/><path stroke="#FD4848" stroke-width=".6" d="M26.6 28.8a6.6 6.6 0 1 1-13.2 0 6.6 6.6 0 0 1 13.2 0Z"/><path stroke="#FD4848" stroke-width=".6" d="M28.4 28.8a8.4 8.4 0 1 1-16.8 0 8.4 8.4 0 0 1 16.8 0Z"/><path fill="#162BEB" fill-rule="nonzero" stroke="#FD4848" stroke-width=".6" d="M21 28.7a1 1 0 1 1-2 0 1 1 0 0 1 2 0Z"/><circle cx="20" cy="28.7" r="1.3" fill="#FD4848" fill-rule="nonzero"/><path stroke="#D5FF5C" stroke-width=".6" d="M10.4 28.8a17 17 0 0 1 2.7-3 11 11 0 0 1 6.9-3c2.6 0 5 1.5 6.9 3l2.7 3a18 18 0 0 1-2.7 2.8 11 11 0 0 1-7 3 11 11 0 0 1-6.8-3z"/></g></svg>