<svg xmlns="http://www.w3.org/2000/svg" xml:space="preserve" viewBox="0 0 324 324"><radialGradient id="a" cx="8.2" cy="19.9" r="372.6" gradientTransform="matrix(1 0 0 -1 0 326)" gradientUnits="userSpaceOnUse"><stop offset=".1" style="stop-color:#d7d3e9"/><stop offset=".2" style="stop-color:#a19cde"/><stop offset=".4" style="stop-color:#696bd9"/><stop offset=".5" style="stop-color:#3a5ae7"/><stop offset=".8" style="stop-color:#225fe7"/><stop offset="1" style="stop-color:#0883d1"/></radialGradient><path d="M84.1 0h155.8A84 84 0 0 1 324 84.1v155.8a84 84 0 0 1-84.1 84.1H84.1A84 84 0 0 1 0 239.9V84.1A84 84 0 0 1 84.1 0" style="fill:url(#a)"/><path d="M275 166.7v3c-18.4 2.9-58 9.8-77.5 17.2-7 2.7-12.5 8.1-15.2 15.1-7.4 19.4-14.4 59.2-17.3 77.7h-6c-2.9-18.5-9.9-58.4-17.3-77.7a27 27 0 0 0-15.2-15.1c-19.5-7.5-59-14.3-77.5-17.2v-6c18.4-2.9 58-9.8 77.5-17.2 7-2.7 12.5-8.1 15.2-15.1 7.5-19.4 14.4-59.2 17.3-77.7h6c2.9 18.5 9.9 58.3 17.3 77.7a27 27 0 0 0 15.2 15.1c19.5 7.4 59.1 14.3 77.5 17.2z" style="fill:#fff"/></svg>