<svg xmlns="http://www.w3.org/2000/svg" width="256" height="256" fill="none"><rect width="256" height="256" fill="#2700FF" rx="40"/><path fill="#fff" fill-rule="evenodd" d="M204.8 95.5v113.8h-34v-55.2q-18.1 14.6-42.8 14.7c-24.7.1-30.7-5-42.9-14.7v55.2H51.2V95.5a33 33 0 0 0 34 0v1.2c10.6 26.8 24.5 38.6 42.8 38.6s32.2-11.8 42.9-38.6v-1.2a33 33 0 0 0 33.9 0M68.2 87.3c11 0 20.1-9 20.1-20.3A20.2 20.2 0 1 0 48 67c0 11.2 9 20.3 20.2 20.3m119.6 0c11.2 0 20.2-9 20.2-20.3a20.2 20.2 0 1 0-40.3 0c0 11.2 9 20.3 20.1 20.3" clip-rule="evenodd"/></svg>
