<svg xmlns="http://www.w3.org/2000/svg" width="30" height="30" viewBox="0 -960 960 960"><path d="m332-285.3 148-148 148 148 46.7-46.7-148-148 148-148-46.7-46.7-148 148-148-148-46.7 46.7 148 148-148 148zM480-80q-82.3 0-155.3-31.5t-127.4-85.8-85.8-127.4T80-480q0-83 31.5-156t85.8-127 127.4-85.5T480-880q83 0 156 31.5T763-763t85.5 127T880-480q0 82.3-31.5 155.3T763-197.3t-127 85.8T480-80m0-66.7q139.3 0 236.3-97.3t97-236q0-139.3-97-236.3t-236.3-97q-138.7 0-236 97T146.7-480q0 138.7 97.3 236t236 97.3m0-333.3"/></svg>