<svg xmlns="http://www.w3.org/2000/svg" viewBox="0 0 48 48"><defs><style>.cls-1{fill:#e6007a}</style></defs><circle cx="24" cy="24" r="24" style="fill:#fff"/><path d="M12.3 28a13.6 13.6 0 0 0 22.5 5.2q.4-.4.8 0l1.2 1.2q.4.3 0 .5a16 16 0 0 1-16 4.3A16 16 0 0 1 9.9 29.1v-.3q0-.2.2-.2.9-.4 1.9-.6z" class="cls-1"/><path d="M20.5 32q-1.1-.3-2-1.3a9 9 0 0 1-2.8-8.8 9 9 0 0 1 7.1-7.5q.2 0 .3.3l.5 1.8-.1.3-2.3 1a7 7 0 0 0-3 7.2 7 7 0 0 0 3.5 4.9v.3l-.9 1.6q0 .3-.3.3Z" class="cls-1"/><path d="M17.5 13.4q1-.8 2.2-1.4 3.3-1.5 6.8-1.1a13 13 0 0 1 8.4 4.3q.3.3 0 .6l-1.4 1.1q-.4.3-.6 0A10 10 0 0 0 21.5 14q-1.3.5-2.5 1.3-.3 0-.5-.4l-.9-1.2z" class="cls-1"/><path d="m17.5 13.4 1.5 2a10 10 0 0 0-3.7 11.5q0 .3-.3.3l-1.6.6q-.5 0-.6-.3-1-3.3-.3-6.5 1-4.5 4.7-7.5z" class="cls-1"/><path d="M12.8 27.5q.2.3.6.1l2-.7a11 11 0 0 0 9.2 7.1q.7 0 .5.5v1.8q0 .3-.3.3a13 13 0 0 1-9-3.9 12 12 0 0 1-2.7-4.4zm-2.2-10.7q1-2 2.3-3.7 2.9-3.2 7-4.7l.6-.1c.8-.3.8-.3 1 .5l.3 1.4q.1.4-.2.4l-2.6 1a14 14 0 0 0-6 6.4h-.2l-2-1z" class="cls-1"/><path d="m10.6 16.8 2.3 1q-.8 1.8-1.1 3.5-.6 3.3.4 6.5v.2l-2.4.8a15 15 0 0 1-.8-5.3q0-3.6 1.6-6.7M20.5 32l1.2-2.1q1.4.8 3.2.9a7 7 0 0 0 4.2-1.3q.6-.4.8.1l1 1.3q.4.4 0 .6-1.7 1.2-3.6 1.6-3.4.8-6.6-.8zm3-15.2-.7-2.4q1.5-.4 3-.3 1.2 0 2.2.4.4 0 .3.4l-.7 1.8q0 .4-.3.3a8 8 0 0 0-3.9-.2Z" class="cls-1"/></svg>