<svg xmlns="http://www.w3.org/2000/svg" xmlns:xlink="http://www.w3.org/1999/xlink" viewBox="0 0 24 24"><defs><path id="a" d="M0 0h14v14H0z"/></defs><g fill="none" fill-rule="evenodd"><circle cx="12" cy="12" r="12" fill="#606060" fill-rule="nonzero"/><g transform="translate(5 5)"><mask id="b" fill="#fff"><use xlink:href="#a"/></mask><g fill="#fff" fill-rule="nonzero" mask="url(#b)"><path d="M4.1 2A2 2 0 1 0 0 2a2 2 0 0 0 4.1 0M13 0h-2.1a1 1 0 0 0-1 1v2.1q0 1 1 1H13q1 0 1-1V1q0-.9-1-1M9 7a2 2 0 1 0-4 0 2 2 0 0 0 4 0M3.1 5H1a1 1 0 0 0-1 1v2q.1 1 1 1h2.1q1 0 1-1V6q0-1-1-1m0 4.9H1a1 1 0 0 0-1 1V13q.1 1 1 1h2.1q1 0 1-1v-2.1q0-1-1-1m4.9 0H6a1 1 0 0 0-1 1V13q0 1 1 1h2q1 0 1-1v-2.1q0-1-1-1m6 2.1a2 2 0 1 0-4.1 0 2 2 0 0 0 4.1 0"/></g></g></g></svg>