<svg xmlns="http://www.w3.org/2000/svg" viewBox="0 0 48 48"><defs><clipPath id="a"><path d="M10 10h28v28H10z" style="fill:none"/></clipPath></defs><circle cx="24" cy="24" r="24" style="fill:#e6007a"/><g style="clip-path:url(#a)"><path d="M18.2 14.1a4.1 4.1 0 1 0-8.2 0 4.1 4.1 0 0 0 8.2 0M36 10h-4.2a2 2 0 0 0-2 2v4.2q.2 1.8 2 2H36a2 2 0 0 0 2-2V12a2 2 0 0 0-2-2m-7.9 14a4.1 4.1 0 1 0-8.2 0 4.1 4.1 0 0 0 8.2 0m-11.9-4.1H12a2 2 0 0 0-2 2V26q.2 1.8 2 2h4.2a2 2 0 0 0 2-2v-4a2 2 0 0 0-2-2m0 9.8H12a2 2 0 0 0-2 2V36q.2 1.8 2 2h4.2a2 2 0 0 0 2-2v-4.2a2 2 0 0 0-2-2m9.9 0H22a2 2 0 0 0-2 2V36q.2 1.8 2 2h4a2 2 0 0 0 2-2v-4.2a2 2 0 0 0-2-2m12 4.1a4.1 4.1 0 1 0-8.2 0 4.1 4.1 0 0 0 8.2 0" style="fill:#fff"/></g></svg>