<svg xmlns="http://www.w3.org/2000/svg" viewBox="0 0 24 24"><g fill="none" fill-rule="evenodd"><circle cx="12" cy="12" r="12" fill="#FFF" fill-rule="nonzero"/><g fill="#E6007A"><path d="M12.7 6.8a1 1 0 0 0-1.4-1.5l-6 6a1 1 0 0 0 0 1.4l3 3q.7.6 1.5 0l5.2-5.2 1.5 1.5-5.2 5.2a1 1 0 0 0 1.4 1.5l6-6q.6-.7 0-1.4l-3-3a1 1 0 0 0-1.5 0L9 13.5 7.5 12z" opacity=".2"/><path d="M6.8 11.3a1 1 0 1 1-1.5 1.4 1 1 0 0 1 1.5-1.4m3-3a1 1 0 1 1-1.5 1.5 1 1 0 0 1 1.5-1.5m2.9-3a1 1 0 1 1-1.4 1.5 1 1 0 0 1 1.4-1.5m-2.9 8.9a1 1 0 1 1-1.5 1.5 1 1 0 0 1 1.5-1.5m2.9-2.9a1 1 0 1 1-1.4 1.4 1 1 0 0 1 1.4-1.4m3-3a1 1 0 1 1-1.5 1.5 1 1 0 0 1 1.5-1.5m-3 8.9a1 1 0 1 1-1.4 1.5 1 1 0 0 1 1.4-1.5m3-3a1 1 0 1 1-1.5 1.5 1 1 0 0 1 1.5-1.5m3-2.9a1 1 0 1 1-1.5 1.4 1 1 0 0 1 1.5-1.4"/></g></g></svg>