<svg xmlns="http://www.w3.org/2000/svg"><g fill="none" fill-rule="nonzero"><path fill="#E4E4E4" d="M20 0a20 20 0 1 0 0 40 20 20 0 0 0 0-40"/><path fill="#131313" d="M20 30a10 10 0 0 1-7-3 10 10 0 0 1-2.2-10.9A10 10 0 0 1 20 10a10 10 0 0 1 7 3 10 10 0 0 1 3 7v1.4q0 1.5-1 2.6-1 1-2.5 1-.9 0-1.6-.4-.9-.4-1.3-1A5 5 0 0 1 20 25q-2.1 0-3.5-1.5Q15 22.1 15 20t1.5-3.5Q18 15 20 15q2.1 0 3.5 1.5Q25 18 25 20v1.4q0 .7.4 1.2t1.1.4 1-.4.5-1.2V20q0-3.3-2.3-5.7A8 8 0 0 0 20 12q-3.3 0-5.7 2.3A8 8 0 0 0 12 20q0 3.3 2.3 5.7A8 8 0 0 0 20 28h5v2zm0-7q1.2 0 2.1-.9T23 20t-.9-2.1T20 17q-1.2 0-2.1.9T17 20t.9 2.1 2.1.9"/></g></svg>