<svg xmlns="http://www.w3.org/2000/svg" width="307" height="62"><g fill="none"><path fill="#FFF" d="M14.3 35q0 2-1.4 3.6a5 5 0 0 1-2.2 1.7q-1.2.3-3.8.3H2.7q-.5 0-.8-.3l-.2-.5v-10L.3 29l-.3-.5q0-.3.3-.5l1.4-.8V18q0-1.3.2-1.5.3-.3 1.5-.3h4.4a6 6 0 0 1 4 1.4 6 6 0 0 1 1.6 2.2q.6 1.5.6 3 0 2.5-1.2 4.1-.4.5-.4.8t.4.8a6 6 0 0 1 1.5 4.4zM6 23.2q0 2.6 1.4 2.6l.7-.1q.7-.2 1-.8.5-1 .5-2l-.2-1.1q-.5-1.5-2-1.5-.6 0-.9.3t-.4.8zm4 9.9q0-.7-.4-1.7-.3-.7-.9-1.1t-1.2-.5l-.6.1q-.6.3-.7.7L6.1 32v2.7q0 1.2.2 1.5.1.3 1 .3 1.5 0 2-1.1t.6-2.2M31 28.6q0 .3-.3.5l-1.4.7v4.3l-.3 2.7-.4.9q-1 1.5-2.4 2.3-1.5.9-3 .9a6 6 0 0 1-5.3-3.3q-.6-1-.6-2.7v-5l-1.4-.8-.3-.5q0-.4.3-.6l1.4-.7v-5.6q0-2.9 2.9-5l1.2-.5 2-.2q1.3 0 2.2.4a5 5 0 0 1 1.8 1.1q2 1.9 1.9 5.2v4.6l1.4.8q.3 0 .3.5m-6 5.6V22.5l-.2-1.2q-.2-.6-.6-.8-.5-.4-1-.4-.7 0-1.2.4t-.6 1V34l.1 1.4q.3.6.7.8t1 .3q.5 0 .9-.2t.6-.8q.3-.4.3-1.3m22.7-5.6q0 .3-.3.5l-1.5.8v5q.2 3-2.6 5.3l-.6.3q-1.5.5-2.8.5a6 6 0 0 1-4.9-2.4l-.6-1.3q-.4-1.8-.4-3v-4.5l-1.4-.7q-.3-.2-.3-.5 0-.4.3-.5l1.4-.8v-9q0-1.4.2-1.6t2-.3h1q.6.1.7.5l.2 1v16.9q0 .8.6 1.5t1.4.5q1-.2 1.4-1 .4-1 .4-2.4V17l.5-.4h2.9q.4 0 .6.4v10.4l1.5.8q.3 0 .3.5m17.8-.2q0 .3-.3.5l-1.4.8v9l-.1 1.4q-.1.4-.6.4h-2.2q-1.5 0-1.8-.8l-.2-.6-.2-.4-2.5-8-.5-1.1q0-.3-.3-.3t-.5.4l-.1 1.5v7.5l-.1 1.3q0 .3-.5.4l-1.4.1h-1.2q-.7 0-.8-.5l-.2-.9v-9.4l-1.4-.8-.2-.5q0-.3.2-.5l1.4-.8v-8.9l.1-1.5q.1-.4.7-.4h3.3q.6 0 .8.7l.5 1.3.3 1.3 2.2 7.4.2.5q.1.3.4.2h.3l.1-.3.2-1.2.1-9.5q0-.3.4-.4h2.9q.6 0 .6.4l.1 1.3v9l1.4.9q.3.2.3.5m13.8-12q.3 0 .4.4v2.7l-.1.6-.5.2h-1.2q-1.2 0-1.6.4l-.3.7v5.7l1.5.9q.3.2.3.5t-.3.5l-1.6.8v9.5l-.1.9q-.1.3-.6.3h-2.6q-.5 0-.7-.4V30l-1.7-1-.2-.4q0-.3.2-.5l1.6-1v-5.7l-.3-.6-.6-.3H69l-.7-.3q-.3-.1-.3-.7v-2.3l.2-.6.4-.2h9.5zm16.6.2.1.4-.2.9-2.5 7.2-1 3 .7.4q.3 0 .3.4t-.3.5l-1.5.9-.1 1.1-.1 8.6q0 .4-.4.4l-1.4.1h-1.3q-.5 0-.6-.2-.2-.2-.3-.7v-7.1q0-1-.3-2.2l-1.5-.9-.2-.4q0-.4.2-.5l.8-.5-.8-2.1-2.6-7.7-.4-1.2V17l.1-.3.3-.2h3.4q.6 0 .7.7l1.6 4.7q.3 1 .7 1t.4-.4l.6-1.7 1.3-3.7q.1-.6.8-.7zm118.8 11.8q0 .3-.3.5l-1.4.8v9l-.1 1.5q0 .4-.6.5h-2.8q-.5 0-.5-.4l-.1-1.4v-4.6q0-1-.4-2l-.2-.1h-.2l-.4 1.1-.8 3.7-.5 2.7-.4.8q-.3.3-1.5.3h-.9l-.7-.3-.3-.7-1.6-6.4-.2-1-.3-.9-.3-.1-.2.1-.2 1.3v6l-.1 1.4q0 .5-.7.5h-2.6q-.4 0-.6-.4l-.1-.9v-9.7l-1.4-.8-.3-.5q0-.3.3-.5l1.4-.8V16.6q.3-.3.7-.4h4.3q.6 0 .8.7l.5 2.4 1.8 9.3.3.9q0 .3.3.3.4 0 .5-.4l.1-.2.8-4.6.2-1.1 1-5 .1-.7q0-1 .3-1.3t.8-.3h4q.6 0 .7.4l.1.8v9.8l1.4.8q.3.2.3.5M230 39.7q0 .7-.2.9t-2 .2h-1.1q-.5 0-.7-.3l-.3-.5-.4-2.6q0-.8-.3-1.4-.2-.7-1-.7h-1.7l-.6.5-.3 1.3-.5 2.9q0 .8-.8.8h-2.7q-.8 0-.8-.7l.2-1.1 1.2-8 .2-1.2v-.2l-1.2-.7q-.3-.2-.3-.5 0-.4.3-.5l1.7-1 1.6-9.5q0-1 .4-1.1.4-.3 1.2-.3h3.2l.7.2q.3.3.5 1.5L228 27l1.6 1q.3 0 .3.5 0 .3-.3.4l-1.2.8 1.5 9zm-5.6-9.4-.3-1.8-.2-.8-.2-.5q0-.3-.3-.3t-.4.3a12 12 0 0 0-.6 3.7l.3.3h1.4l.3-.3zm22.9-1.9q0 .3-.3.5l-1.3.8V39q0 1-.2 1.5-.2.3-.6.4h-2.1q-1.5 0-1.9-.9l-.2-.5-.1-.5-2.6-8.1-.4-1.2-.4-.3q-.3 0-.5.4l-.1 1.5V39l-.1 1.4q0 .3-.5.4l-1.4.1h-1.2q-.7 0-.8-.5l-.2-1v-9.6L231 29q-.3-.2-.3-.5t.3-.5l1.4-.8v-9l.1-1.6q.1-.4.7-.5h3.3q.6 0 .8.8l.5 1.3.3 1.4 2.2 7.4.3.6q0 .3.3.2h.3l.1-.3.2-1.2.1-9.7q0-.3.4-.4h3q.5 0 .6.4v10.6l1.4.8q.3.2.3.5m15.4 11.2q0 .7-.2.9t-2 .2h-1q-.5 0-.8-.3l-.3-.5-.3-2.6q0-.8-.4-1.4-.2-.7-1-.7H255l-.6.5-.3 1.3-.4 2.9q-.1.8-1 .8h-2.6q-.8 0-.8-.7l.2-1.1 1.3-7.9.2-1.2v-.2l-1.2-.7q-.3-.2-.3-.5 0-.4.3-.5l1.7-1 1.6-9.5q0-1 .5-1.1.2-.3 1.1-.3h3.2l.8.2q.2.3.4 1.5l1.6 9.2 1.6 1q.3 0 .3.5 0 .3-.3.4l-1.2.8 1.5 9zm-5.6-9.4-.3-1.8-.1-.8-.3-.5q0-.3-.3-.3t-.4.3a12 12 0 0 0-.6 3.7l.3.3h1.4l.3-.3zm19.7-8.6v1.9q0 .6-.2.9-.1.3-.7.3h-2.4q-.4 0-.6-.2-.2 0-.2-.7v-1.6q0-.7-.6-1.5-.5-.6-1.3-.7-1 0-1.4 1a5 5 0 0 0-.5 2.3v9.8q0 1.2.3 2 .2.7.6 1t1 .4l.9-.3q.5-.2.7-.8l.1-.2q.3-1.1.2-2l-.2-2q0-.6-.9-.7-.8-.2-.8-1v-2.3q0-.8.9-.8l4.8.2.3.5v6.7q0 2.4-.3 3.5-.5 1.1-1.8 2.3Q273 41 271 41a6 6 0 0 1-5.6-3.9q-.3-.6-.3-1.9v-5.4l-1.4-.8-.3-.5q0-.3.3-.5l1.4-.8v-5.6a6 6 0 0 1 2.5-4.8q1.2-.8 2.7-.8h1.3q2.5 0 4 2.2a5 5 0 0 1 1.2 3.5m14.4 16.9V40q-.2.6-.5.7H281l-.5-.2-.2-.5V29.8l-1.5-.9-.3-.5q0-.3.3-.4l1.4-.9V18l.1-1.3q0-.3.4-.4h8.8q1.1 0 1.4.2t.3 1.7v1.1q0 .6-.5.7l-1.4.1H286q-.9 0-1.2.4-.3.3-.4 1.1V25q0 .6.4 1l.6.3h1.2l1.7.1q.6 0 .8.2t.3.9v2.2q0 .7-.8.8H286q-1 0-1.4.3t-.3 1.4l-.1 1.6v1.3q0 .9.4 1.2.3.3 1.2.3h4.1l.9.2.2.6zM307 40v.2l-.1.4-.4.2h-3.2q-.5 0-.7-.5l-.3-1.4-.7-2.9-.7-2.8q-.1-.8-.4-1.1-.2-.4-.7-.4-.6 0-.9.3l-.2.7-.1 1.2v5.7q0 .6-.2 1l-.7.2h-2.4q-.6 0-.7-.4l-.1-1v-9.6L293 29l-.3-.5q0-.3.3-.5l1.4-.8v-9.3q0-1.3.2-1.6l.5-.2h4.7a9 9 0 0 1 3 .4 4.4 4.4 0 0 1 3.4 4 44 44 0 0 1 0 6.4q0 1.2-1 2.5-.5.6-.5 1.4v.8zm-5-19-1.3-.6h-.5l-.5-.1q-.8 0-.9.3l-.2 1.3v4.6q0 .9 1 1.2h.5q.9 0 1.4-.5.6-.4.8-1.3l.1-.4v-3.2q0-.8-.4-1.3m-194.7 1.1q.3.5.1.9t.2.5h.2l18.5 10.6h.4q.7 0 1.3.4 3 1.5 5.8 3.3l.6.4q1.1.5 1.5 1.6l.6.9q.7.5 1.6.3l1-.1q.4 0 .6.2.2.4-.2.4-.8 0-1.5.6a2 2 0 0 1-1.5.3q-.3 0-.4.3-.2 1-1 1.8-.3.2-.1.4.4.6.3 1.2 0 .4.2.5c2.3 1.3 3.1 3.4 3.2 6q.1 2.4-.4 4.9l-.4 4q-.1.7-.8.4l-6.5-3.7q-.6-.3 0-.7 1.4-1.4 2.2-3l.6-1.3q.6-2.2-1.3-3.6-.7-.5-1.5 0l-.5.4q-1 .6-2 .1t-1.7-1.4q-1-1.2-.1-2.5 0-.2.4-.5c.4-.5.4-1.4-.3-1.8l-1.3-1.1-.5-.7-.5-.5q-.6-.3-.1-1l.3-.7c.5-.8.4-.9.1-1.4V38q.3-.5-.1-.8l-1.3-.7-10.7-6.2q-.5-.2-.2-.6.2-.5-.3-.6l-8.2-4.6c-.8-.5-.6-.4-.5-1.1l.7-1.2a1 1 0 0 1 1.3-.1h.1q.3.3.4 0l1.2-.2zM130.7 48l-.2.4q-.5.9-1.5 1.2-.2.1-.4 0 0-.3.3-.4 1-.5 1.3-1.7V47l-1.2-1c-.4-.3-1.3-.4-1.8 0l-.7.8q-.5.8.2 1.5.6.8 1.4 1.2 1.3.9 2.2-.3l.5-.9zm51.5-26.1q.6 0 1.2.3h.4l.1-.1a1 1 0 0 1 1.3 0l.7 1.3c.1.7.3.6-.5 1l-8.2 4.7q-.4 0-.3.6.2.4-.2.6L166 36.5l-1.3.7q-.4.4-.1.7v.6c-.3.5-.4.6 0 1.4l.4.7q.5.6-.1 1l-.5.5-.5.7-1.3 1q-1 1-.3 1.9l.4.5q.9 1.3 0 2.5l-1.9 1.4q-1 .5-1.9-.1l-.5-.4q-.7-.4-1.5 0a3 3 0 0 0-1.3 3.6l.6 1.2q.8 1.7 2.3 3 .5.5-.1.8l-6.5 3.7q-.7.3-.8-.5l-.4-4q-.5-2.4-.4-4.9-.1-3.8 3.2-6 .3 0 .2-.4 0-.6.3-1.2.2-.2 0-.4-1-.7-1.1-1.8 0-.4-.4-.3-.8.1-1.5-.3t-1.5-.6q-.4 0-.2-.4.2-.3.5-.2h1q1 .4 1.7-.2.4-.4.6-1 .4-1 1.5-1.5l.6-.4 5.8-3.3q.6-.4 1.3-.4h.4l18.5-10.5h.2q.3-.2.2-.6a1 1 0 0 1 0-.9zm-24 26.3.5.9q1 1.2 2.2.3.8-.5 1.4-1.2.7-.7.2-1.5l-.7-.8c-.5-.4-1.4-.3-1.8 0l-1.1 1q-.3.3-.1.5.3 1.2 1.3 1.7.3 0 .3.4-.2.2-.4 0-1-.3-1.5-1.2l-.2-.4z"/><path fill="#FFF" d="M154.4 30c0 8.5-5.4 15.4-12 15.5-6.7 0-12-7-12-15.5a18 18 0 0 1 2.6-9.6q1.2-1.4 4.7-2.2l2-.4q1.3-.3 2.8-.3a36 36 0 0 1 7.2.3q2.6 2.7 3.9 6.7.8 2.6.8 5.5"/><path fill="#E6007A" d="m156.9 20.9-.5-.8q-1.7-1.9-6.5-2.7a32 32 0 0 0-10.3-.1l-2 .4q-3.7.8-5 2.4l-.5.8a19 19 0 0 0-2.3 9.1c0 8.8 5.6 16 12.6 16h4.3c6.9 0 12.5-7.2 12.5-16q-.1-5.1-2.3-9.1m-14.4 24.6h-.1c-6.7 0-12-7-12-15.5a18 18 0 0 1 2.6-9.6q1-1.1 3.4-1.9a13 13 0 0 0-3.4 4.6q-1.5 3-1.5 7c0 7.5 4.9 13.7 10.9 13.7h.6-.5c-5.5-.9-9.7-6.7-9.7-13.8q0-3.4 1.2-6.1a13 13 0 0 1 4.5-5.9l1.2-.2 2.8-.3a36 36 0 0 1 7.2.3q2.5 2.7 3.9 6.7.8 2.6.8 5.6c0 8.4-5.4 15.3-12 15.4"/><path fill="#E6007A" d="m134.4 32.2.2-.8q.7-1 1.6-.5 1.3.8 2 2.2t.5 3q0 .9-.4 1.5-.6.5-1.2.2-1-.4-1.6-1.5-1-1.2-1-2.9l-.1-.1zm0-5.4q.2-1.5.8-2.5.6-1.2 1.7-2 .7-.3 1.3.2.5.5.5 1.3c.2 2-.9 4.4-2.3 5.3l-.7.3q-.8 0-1.2-1l-.1-.5zm7.9 9.5q1.2 0 2.2.6l.4.4c.8.8.7 2-.2 2.8q-.8.7-1.7.7-1.5.3-2.7-.5l-.7-.7q-.6-1 0-2t1.6-1.1zm8.1-3.5q0 2-1 3.4a4 4 0 0 1-1.4 1.5q-.4.3-1 .2-.9-.3-1-1.6 0-2.4 1.1-4 .6-.9 1.3-1.3t1.5 0q.4.7.5 1.5zm0-5.5q0 .6-.2 1-.3 1.3-1.4 1a3 3 0 0 1-1.4-1.1q-1-1.4-1.4-3.4v-1.3q.4-1.6 1.7-1.2.9.4 1.6 1.4 1 1.4 1 3.2zm-8.1-3.5q-1 0-2-.6-.5-.4-.8-1-.4-.9.1-1.7.7-1 1.7-1.2 1.7-.4 3.2.5l.7.8q.5 1-.1 2-.6.7-1.4 1z"/><path fill="#E6007A" d="m152.5 21-3.4-.3c-9 0-16.5 4.9-19.1 11.6a20 20 0 0 1 2.6-12.2q1.3-1.5 5-2.4l2-.4a30 30 0 0 1 10.2.1q1.6 1.5 2.7 3.5" opacity=".3"/><path fill="#FFF" d="m171.6 10-1.7 1.1q-5.4 3.4-11.4 5.2v-.1c-.8-4.1-2-9.2-4.2-14.2a3.7 3.7 0 0 0-5.5-1.2l-2 1.5c-1 .6-4.1.4-5-.2L140 .8a3.7 3.7 0 0 0-5.5 1.2 61 61 0 0 0-4.2 14.3q-6.3-1.8-11.8-5.5l-1.7-1.1q-1-.8-2.3-.1a2 2 0 0 0-1 2q0 3.4 1.7 6.6 3.1 5.9 8.9 9.2 2.7 1.6 5.6 2.7c0-1.7.3-4.5 1-6l.3-.3q1.6-1.7 5.6-2.7l2.3-.5a36 36 0 0 1 11.7.1q5.3 1 7.3 3l.5 1 .1.6q.6 2.2.7 4.8 4.6-1.7 8.6-5 5-3.6 6.9-9.4.5-1.8.7-3.7v-.8c-.4-2-2.4-2.5-3.8-1.3"/><path fill="#E6007A" d="m141.3 10.4-2-2.8 3.5.1 2-2.7 1 3.3 3.3 1.1-3 1.9v3.5l-2.7-2.2-3.3 1z"/></g></svg>