<svg xmlns="http://www.w3.org/2000/svg" width="71" height="54"><g fill="none"><path fill="#FFF" d="M3.7 19.3q.2.4 0 .7 0 .3.3.5l16 9.2h.3q.6 0 1 .3 2.6 1.4 5 3l.6.2q.9.5 1.2 1.4.2.5.6.8.6.5 1.4.3l.8-.1q.3 0 .5.2t-.1.3q-.9 0-1.4.6-.6.3-1.2.2-.3 0-.4.3 0 .9-.9 1.5-.2.2 0 .4.3.5.2 1t.2.4q2.8 1.9 2.8 5.2 0 2.3-.4 4.4l-.3 3.4q0 .7-.7.4l-5.6-3.2q-.6-.3 0-.7a9 9 0 0 0 1.9-2.6l.5-1.1q.5-2-1-3.1-.8-.4-1.4 0l-.4.3q-.8.6-1.7.1T20 42.4q-.9-1-.1-2.2l.3-.4q.6-.8-.1-1.6l-1.2-1-.4-.5-.4-.5q-.5-.3-.2-.8l.4-.7c.3-.6.2-.7 0-1.2V33q.3-.4-.1-.6l-1.1-.6-9.2-5.4q-.3-.1-.1-.6t-.3-.5l-7-4c-.7-.4-.5-.3-.4-1l.6-1q.5-.4 1-.1H2q.2.2.3 0l1-.2zm20 22.4-.2.3q-.5.8-1.2 1-.2.2-.4 0l.2-.3q1-.4 1.2-1.4v-.4l-1-1q-.8-.4-1.6 0l-.6.7q-.5.9.1 1.4l1.2 1q1.2.8 2-.3l.4-.7zm44-22.7q.6 0 1 .3h.4l.1-.1q.6-.3 1.1.1l.6 1c.1.7.3.6-.4 1l-7 4q-.4.1-.3.5t-.1.6l-9.2 5.3-1 .7q-.5.2-.2.6v.5c-.2.5-.3.6 0 1.2l.4.6q.4.6-.2 1l-.4.3q-.1.5-.4.6l-1.2 1c-.5.4-.5 1.2-.1 1.6l.3.4q.8 1.2-.1 2.2-.7.8-1.5 1.2-1 .4-1.7 0l-.4-.4q-.7-.4-1.3 0-1.5 1.3-1 3.1 0 .6.4 1 .7 1.6 2 2.7.5.4-.1.7l-5.6 3.2q-.7.3-.7-.4l-.3-3.4q-.4-2.3-.4-4.4 0-3.3 2.8-5.2.3 0 .2-.3 0-.6.2-1 .2-.3 0-.5-.7-.7-1-1.5 0-.4-.3-.3-.6.1-1.2-.2-.5-.5-1.4-.6-.3 0 0-.3 0-.2.4-.2h.8q.8.4 1.4-.2.4-.3.6-.8.3-1 1.2-1.4l.6-.3 5-2.9q.4-.4 1-.3h.4l15.8-9.2h.1q.3-.2.2-.5v-.8zM47.2 42l.4.7q.8 1.1 2 .3l1.2-1q.6-.6 0-1.4l-.5-.7c-.4-.3-1.2-.2-1.5 0l-1 1q-.2 0-.1.4.2 1 1.2 1.4l.2.4h-.4q-.8-.4-1.2-1l-.2-.4z"/><path fill="#FFF" d="M45 26.3c0 7.3-4.6 13.2-10.2 13.3h-.1c-5.7 0-10.3-6-10.3-13.3a16 16 0 0 1 2.3-8.3q1-1.2 4-2l1.7-.3 2.4-.2a30 30 0 0 1 6.1.3q2.3 2.3 3.3 5.7.7 2.3.7 4.8"/><path fill="#E6007A" d="m47 18.4-.4-.7q-1.4-1.6-5.5-2.3a27 27 0 0 0-8.7-.1l-1.8.3q-3 .8-4.3 2.1l-.3.7q-2 3.4-2 7.9C24 33.9 28.8 40 34.7 40h3.6c6 0 10.7-6.1 10.7-13.7q0-4.5-2-8M34.8 39.6h-.1c-5.7 0-10.3-6-10.3-13.3a16 16 0 0 1 2.3-8.3q.8-1 3-1.6-2 1.5-3 4-1.2 2.6-1.3 5.9c0 6.5 4.2 11.9 9.3 11.9h.5l-.4-.1c-4.6-.7-8.2-5.7-8.2-11.8q0-3 1-5.3 1.2-3.4 3.8-5l1-.3 2.4-.2a30 30 0 0 1 6.1.3q2.3 2.3 3.3 5.7.7 2.3.7 4.8c0 7.3-4.5 13.2-10.1 13.3"/><path fill="#E6007A" d="m28 28.2.1-.7q.5-1 1.4-.5a4 4 0 0 1 1.6 2q.6 1.1.5 2.6 0 .7-.4 1.2t-1 .2a3 3 0 0 1-1.4-1.3q-.6-1-.9-2.5zm0-4.7q0-1.2.6-2.2t1.4-1.6q.6-.4 1.2 0 .4.6.4 1.2c.1 1.7-.8 3.8-2 4.6l-.6.2q-.6 0-1-.8v-1.5m6.6 8.3a3 3 0 0 1 1.9.5l.3.3q1 1.3-.1 2.4-.8.6-1.5.7-1.2.2-2.3-.5l-.6-.6q-.4-.9 0-1.7.6-.8 1.4-1zm6.9-3.1a6 6 0 0 1-.9 3q-.5.8-1.1 1.3l-.8.2q-.8-.3-.9-1.4 0-2 1-3.5.4-.7 1-1 .7-.7 1.3 0 .4.4.4 1.2zm0-4.6-.1.8q-.4 1-1.2.9-.7-.4-1.2-1a6 6 0 0 1-1.2-2.9v-1.1q.3-1.5 1.4-1.1.8.4 1.4 1.3.8 1.1.9 2.7zm-6.9-3.1q-.8 0-1.7-.5l-.7-.8q-.3-.8.1-1.5.7-.9 1.5-1 1.4-.4 2.7.4l.6.6q.4.8 0 1.8-.6.6-1.3.8z"/><path fill="#E6007A" d="m43.3 18.5-3-.2c-7.5 0-14 4.2-16.1 10a17 17 0 0 1 2.2-10.6q1.1-1.2 4.2-2l1.7-.4a26 26 0 0 1 8.7.1q1.5 1.4 2.3 3" opacity=".3"/><path fill="#FFF" d="m58.8 8.6-1.5 1q-4.6 3-9.7 4.5-1-5.7-3.6-12.4a3 3 0 0 0-4.8-1L37.5 2c-.8.5-3.5.4-4.3-.2L31.7.7a3 3 0 0 0-4.7 1 53 53 0 0 0-3.6 12.4Q18 12.4 13.3 9.3l-1.4-1q-1-.5-2 0T9 10q0 3 1.4 5.7 2.7 5.1 7.7 8 2.3 1.4 4.8 2.3c0-1.4.2-3.8.8-5q0-.3.3-.4 1.3-1.5 4.8-2.4l2-.4a30 30 0 0 1 10 .1q4.6.8 6.2 2.7l.5.7v.6q.6 2 .6 4 4-1.4 7.5-4.1a17 17 0 0 0 5.8-8.3q.5-1.5.6-3.1v-.7c-.3-1.7-2-2.2-3.2-1.1"/><path fill="#E6007A" d="m32.8 9-1.7-2.5 3 .2 1.8-2.4.8 2.9 2.8 1L37 9.8v3l-2.4-1.9-2.8.9z"/></g></svg>