<svg xmlns="http://www.w3.org/2000/svg" id="Ebene_2" data-name="Ebene 2" viewBox="0 0 473.8 305.7"><defs><style>.cls-2{fill:#131313}</style></defs><g id="Ebene_1-2" data-name="Ebene 1"><path d="M219.8 188.6a109 109 0 0 0-26.9-65.1A109.7 109.7 0 0 0 40 110.7V0h-.2L0 20.3v175.4a110.1 110.1 0 0 0 212.9 39 109 109 0 0 0 6.9-46M179.9 199c-1.7 37-32.4 66.7-69.9 66.7s-70-31.4-70-70a70 70 0 1 1 140 3.3" class="cls-2"/><path d="M473.6 162.4A83.5 83.5 0 0 0 327 114a83.3 83.3 0 0 0-134 9.4 110 110 0 0 1 26.9 65.1v-20.4a43.6 43.6 0 0 1 87.2 0v78.2a20 20 0 1 0 39.8 0v-78.2a43.6 43.6 0 0 1 87.1-2.3v135.4h.5l39.4-20z" class="cls-2"/><path d="M202.9 111q-5.5 5.7-9.9 12.5c14.8 17 24.5 38.4 26.7 62v-17c0-11.3 4.3-21.6 11.3-29.3a131 131 0 0 0-28.2-28.2" style="fill:#878787;opacity:.5"/><path d="M180 195.7v3.3c-1.8 37-32.5 66.7-70 66.7s-70-31.4-70-70a70 70 0 0 1 140 0" style="fill:#E6007A"/></g></svg>