<svg xmlns="http://www.w3.org/2000/svg" width="32" height="32" fill="none"><g clip-path="url(#a)"><path fill="#E6007A" d="M16 32a16 16 0 1 0 0-32 16 16 0 0 0 0 32"/><mask id="b" width="20" height="20" x="6" y="6" maskUnits="userSpaceOnUse" style="mask-type:luminance"><path fill="#fff" d="M26 6H6v20h20z"/></mask><g fill="#fff" mask="url(#b)"><path fill-rule="evenodd" d="M16 24.8a8.7 8.7 0 1 0 0-17.5 8.7 8.7 0 0 0 0 17.5m0 1.2a10 10 0 1 0 0-20 10 10 0 0 0 0 20" clip-rule="evenodd"/><path fill-rule="evenodd" d="M9.4 16.4a15 15 0 0 0 5.7 2.8q3.8 1 6.4.5c1.8-.4 2.4-1 2.6-1.5 0-.5-.1-1.5-1.5-2.6a15 15 0 0 0-5.7-2.8 15 15 0 0 0-6.4-.5c-1.8.4-2.4 1-2.6 1.5-.1.5.1 1.5 1.5 2.6m-2.7-2.9c-.6 2.5 3 5.6 8.1 7 5.1 1.3 9.8.4 10.5-2 .6-2.5-3-5.6-8.1-7-5.1-1.3-9.8-.4-10.5 2" clip-rule="evenodd"/><path d="M20.4 14.2a1.9 1.9 0 1 1-2.6-2.6 1.9 1.9 0 0 1 2.6 2.6M13.1 19.8a1.9 1.9 0 1 1-2.6-2.7 1.9 1.9 0 0 1 2.6 2.7"/></g></g><defs><clipPath id="a"><path fill="#fff" d="M0 0h32v32H0z"/></clipPath></defs></svg>