<?xml version="1.0" encoding="UTF-8"?>
<svg id="Ebene_2" data-name="Ebene 2" xmlns="http://www.w3.org/2000/svg" viewBox="0 0 1569.74 328.34">
  <defs>
    <style>
      .cls-1 {
        fill: #e6007a;
      }

      .cls-2 {
        fill: #fff;
      }

      .cls-3 {
        fill: #a00541;
      }

      .cls-4 {
        fill: #131313;
      }

      .cls-5 {
        fill: #3a3a3a;
      }
    </style>
  </defs>
  <g id="Ebene_1-2" data-name="Ebene 1">
    <g>
      <path class="cls-2" d="m219.77,188.63v14.1c.15-2.33.23-4.68.23-7.05s-.08-4.72-.23-7.05Z"/>
      <g>
        <path class="cls-4" d="m588.35,265.76c0,25.2-13.72,37.1-28.98,37.1-7.42,0-14.42-3.92-18.48-8.4v6.86h-14.28v-94.64l14.28-7.42v35.56c5.32-4.9,11.48-8.54,19.18-8.54,15.82,0,28.28,11.48,28.28,39.48Zm-14.42.42c0-18.48-5.88-26.6-16.52-26.6-6.86,0-12.88,4.62-16.66,9.38v30.94c3.22,4.34,9.94,9.66,17.22,9.66,10.36,0,15.96-7.84,15.96-23.38Z"/>
        <path class="cls-4" d="m668.43,264.22c0,24.36-14.28,38.64-33.18,38.64s-32.34-15.26-32.34-38.22,14.28-38.36,32.76-38.36,32.76,14.98,32.76,37.94Zm-14.56.42c0-14.98-7.14-24.64-18.76-24.64-10.92,0-17.64,9.66-17.64,24.22,0,16.1,7.42,24.92,18.34,24.92s18.06-11.06,18.06-24.5Z"/>
        <path class="cls-4" d="m744.73,301.32h-14.42v-7c-3.64,5.32-10.92,8.54-18.48,8.54-17.08,0-26.18-11.2-26.18-32.9v-42.14h14.42v41.58c0,14.84,5.6,20.16,15.12,20.16s15.12-6.86,15.12-18.76v-42.98h14.42v73.5Z"/>
        <path class="cls-4" d="m825.09,301.32h-14.42v-41.58c0-14.84-5.6-20.16-15.12-20.16s-15.12,6.86-15.12,18.76v42.98h-14.42v-73.5h14.42v7c3.64-5.32,10.92-8.54,18.48-8.54,17.08,0,26.18,11.2,26.18,32.9v42.14Z"/>
        <path class="cls-4" d="m881.93,286.76l-1.68,12.74c-3.5,1.96-8.4,3.36-14.14,3.36-10.22,0-16.52-6.3-16.52-19.46v-42.42h-10.5v-13.16h10.5v-21l14.14-7.56v28.56h18.2v13.16h-18.2v39.9c0,6.86,2.24,8.82,7.56,8.82,3.78,0,7.98-1.4,10.64-2.94Z"/>
        <path class="cls-4" d="m961.31,227.82l-36.96,99.4h-15.26l10.64-27.3-27.02-72.1h15.82l12.04,35.98c2.1,6.44,5.6,17.36,6.44,21.42,1.26-4.34,4.34-14.84,6.58-21.14l12.46-36.26h15.26Z"/>
        <path class="cls-4" d="m1114.19,301.32h-14.42v-41.58c0-14.84-4.62-20.16-14.14-20.16s-14.14,6.86-14.14,18.76v42.98h-14.42v-41.58c0-14.84-4.62-20.16-14.14-20.16s-14.14,6.86-14.14,18.76v42.98h-14.42v-73.5h14.42v7c3.64-5.32,9.94-8.54,17.5-8.54,9.94,0,16.24,3.78,20.16,10.78,5.32-6.58,11.06-10.78,22.54-10.78,17.08,0,25.2,11.2,25.2,32.9v42.14Z"/>
        <path class="cls-4" d="m1191.19,301.32h-14.14v-7.28c-5.04,5.04-12.18,8.82-20.16,8.82-11.9,0-25.48-6.72-25.48-24.78,0-16.38,12.6-23.8,29.26-23.8,6.86,0,12.32.98,16.38,2.8v-5.46c0-7.98-4.9-12.46-13.86-12.46-7.56,0-13.44,1.4-19.18,4.62l-5.6-10.92c7-4.34,14.84-6.58,25.2-6.58,16.38,0,27.58,7.98,27.58,24.64v50.4Zm-14.14-20.86v-10.5c-3.92-1.96-8.96-3.22-16.8-3.22-9.24,0-15.12,4.2-15.12,10.92,0,7.28,4.62,12.18,14.14,12.18,7.7,0,14.42-4.76,17.78-9.38Z"/>
        <path class="cls-4" d="m1270.99,301.32h-14.42v-41.58c0-14.84-5.6-20.16-15.12-20.16s-15.12,6.86-15.12,18.76v42.98h-14.42v-73.5h14.42v7c3.64-5.32,10.92-8.54,18.48-8.54,17.08,0,26.18,11.2,26.18,32.9v42.14Z"/>
        <path class="cls-4" d="m1347.99,301.32h-14.14v-7.28c-5.04,5.04-12.18,8.82-20.16,8.82-11.9,0-25.48-6.72-25.48-24.78,0-16.38,12.6-23.8,29.26-23.8,6.86,0,12.32.98,16.38,2.8v-5.46c0-7.98-4.9-12.46-13.86-12.46-7.56,0-13.44,1.4-19.18,4.62l-5.6-10.92c7-4.34,14.84-6.58,25.2-6.58,16.38,0,27.58,7.98,27.58,24.64v50.4Zm-14.14-20.86v-10.5c-3.92-1.96-8.96-3.22-16.8-3.22-9.24,0-15.12,4.2-15.12,10.92,0,7.28,4.62,12.18,14.14,12.18,7.7,0,14.42-4.76,17.78-9.38Z"/>
        <path class="cls-4" d="m1427.22,294.32c0,22.4-8.12,33.18-34.72,34.02l-4.9-10.92c20.72-.98,25.2-6.58,25.2-21.84v-1.26c-5.32,4.9-11.34,8.54-19.04,8.54-15.68,0-28.28-11.48-28.28-39.48,0-25.2,13.86-37.1,28.98-37.1,7.42,0,14.42,3.92,18.34,8.4v-6.86h14.42v66.5Zm-14.14-14.14v-30.94c-3.22-4.34-9.94-9.66-17.22-9.66-10.36,0-15.96,7.84-15.96,23.38,0,18.48,5.88,26.6,16.52,26.6,6.86,0,12.88-4.62,16.66-9.38Z"/>
        <path class="cls-4" d="m1508.14,263.1c0,2.66-.28,5.04-.42,6.58h-48.58c1.54,14.14,9.52,20.16,18.48,20.16,6.16,0,11.06-2.24,15.96-5.88l8.54,9.24c-6.44,6.16-14.14,9.66-25.34,9.66-17.22,0-31.78-13.86-31.78-38.22s13.16-38.36,32.2-38.36c20.86,0,30.94,16.94,30.94,36.82Zm-14.56-5.32c-.7-10.08-5.46-18.48-17.36-18.48-9.66,0-15.54,6.72-16.8,18.48h34.16Z"/>
        <path class="cls-4" d="m1569.74,229.36l-3.78,13.72c-3.08-1.68-6.3-2.66-11.06-2.66-9.1,0-14.42,6.44-14.42,18.9v42h-14.42v-73.5h14.42v7c3.36-4.9,9.52-8.54,16.8-8.54,5.88,0,9.52,1.12,12.46,3.08Z"/>
      </g>
      <g>
        <g>
          <path class="cls-4" d="m219.77,188.63c-.57-9.09-2.26-17.88-4.92-26.24-4.61-14.49-12.15-27.69-21.92-38.9-20.17-23.16-49.87-37.81-82.93-37.81-26.06,0-50.53,8.92-70,25.07V0h-.25L0,20.25v175.43c0,60.65,49.35,110,110,110,26.53,0,50.9-9.44,69.92-25.14,14.64-12.08,26.1-27.87,32.95-45.91,3.81-10.02,6.2-20.74,6.9-31.9.15-2.33.23-4.68.23-7.05s-.08-4.72-.23-7.05Zm-39.85,10.39c-1.75,37.04-32.44,66.66-69.92,66.66s-70-31.41-70-70,31.4-70,70-70,68.17,29.61,69.92,66.66c.05,1.11.08,2.22.08,3.34s-.03,2.23-.08,3.34Z"/>
          <path class="cls-4" d="m473.64,162.39s0,0,0,0c-2.99-43.32-39.18-77.64-83.24-77.64-25.41,0-48.2,11.42-63.52,29.39,0,0,0,0,0,0-15.32-17.97-38.11-29.39-63.52-29.39-29.58,0-55.61,15.47-70.43,38.74,9.77,11.21,17.31,24.41,21.92,38.9,2.66,8.36,4.35,17.15,4.92,26.24v-20.43c0-24.05,19.55-43.6,43.59-43.6s43.59,19.55,43.59,43.6v78.15c0,11.01,8.92,19.93,19.93,19.93s19.93-8.92,19.93-19.93v-78.15c0-24.05,19.56-43.6,43.59-43.6s42.36,18.35,43.54,41.35v135.32h.48l39.37-20.06-.15-118.82Z"/>
        </g>
        <path class="cls-5" d="m202.85,110.96c-3.67,3.85-6.97,8.04-9.84,12.53,14.76,16.92,24.45,38.37,26.68,61.96v-17.01c0-11.25,4.29-21.53,11.32-29.27-7.89-10.78-17.4-20.3-28.16-28.21Z"/>
        <path class="cls-1" d="m180,195.68c0,1.12-.03,2.23-.08,3.34-1.75,37.04-32.44,66.66-69.92,66.66s-70-31.41-70-70,31.4-70,70-70,68.17,29.61,69.92,66.66c.05,1.11.08,2.22.08,3.34Z"/>
      </g>
      <path class="cls-3" d="m49.01,201.87c0,21.99,10.19,41.64,26.11,54.49-20.97-12.11-35.12-34.78-35.12-60.68,0-38.6,31.4-70,70-70,16.62,0,31.91,5.82,43.93,15.55-10.28-5.96-22.21-9.36-34.92-9.36-38.6,0-70,31.4-70,70Z"/>
    </g>
  </g>
</svg>