<svg xmlns="http://www.w3.org/2000/svg" width="225" height="47" fill="none"><path fill="#131313" fill-rule="evenodd" d="M80.7 43.2c2.2 0 4.1-1.7 4.1-5.4 0-4.1-1.8-5.8-4-5.8a4 4 0 0 0-2.8 1.2V28l-2 1v14h2v-1q1 1.1 2.7 1.2m-.3-9.3q2.3-.1 2.4 4 0 3.4-2.3 3.4c-1 0-2-.8-2.5-1.4v-4.6q.9-1.2 2.4-1.4M91.5 43.2c2.7 0 4.8-2 4.8-5.6 0-3.4-2-5.6-4.7-5.6s-4.7 2.2-4.7 5.6 2 5.6 4.6 5.6m0-9.2q2.6.1 2.7 3.6c0 2-1 3.6-2.6 3.6q-2.5 0-2.6-3.6.1-3.5 2.5-3.6" clip-rule="evenodd"/><path fill="#131313" d="M107.2 43H105v-1q-1 1.2-2.6 1.2-3.8 0-3.8-4.8v-6.2h2v6.1q.1 3.2 2.2 3 2.2 0 2.2-2.8v-6.3h2zM118.6 43h-2V37q0-3.2-2.2-3-2 0-2.1 2.8V43h-2.1V32.2h2v1q1-1.1 2.7-1.2 3.6 0 3.7 4.8zM126.8 40.9l-.3 1.9a4 4 0 0 1-2 .4q-2.3 0-2.4-2.8V34h-1.5v-1.9h1.5v-3l2-1.2v4.2h2.7v2h-2.6V40q0 1.4 1 1.3t1.6-.4M138 32.2l-5.2 14.6h-2.2l1.6-4-4-10.6h2.4l1.7 5.3.9 3.2 1-3.2 1.7-5.3zM160 43h-2.1V37q0-3.2-2-3-2 0-2 2.8V43h-2.1V37q0-3.2-2-3-2 0-2 2.8V43h-2.1V32.2h2v1a3 3 0 0 1 2.5-1.2q2.2 0 3 1.6.9-1.5 3.1-1.6 3.7 0 3.6 4.8z"/><path fill="#131313" fill-rule="evenodd" d="M169 43h2v-7.4c0-2.4-1.7-3.6-4-3.6q-2.2 0-3.6 1l.8 1.6q1.1-.7 2.7-.7 2 0 2 1.8v.8q-1-.4-2.3-.4c-2.4 0-4.2 1-4.2 3.5 0 2.7 2 3.6 3.6 3.6a4 4 0 0 0 3-1.2zm0-4.6V40c-.6.6-1.5 1.3-2.6 1.3q-2 0-2-1.8 0-1.5 2.1-1.6a5 5 0 0 1 2.4.5" clip-rule="evenodd"/><path fill="#131313" d="M182.3 43h-2V37q0-3.2-2.2-3-2.2 0-2.2 2.8V43h-2V32.2h2v1q1-1.1 2.7-1.2 3.6 0 3.7 4.8z"/><path fill="#131313" fill-rule="evenodd" d="M191.3 43h2v-7.4q-.2-3.6-4-3.6-2 0-3.5 1l.8 1.6q1.1-.7 2.7-.7 2 0 2 1.8v.8q-1-.4-2.3-.4c-2.4 0-4.2 1-4.2 3.5 0 2.7 2 3.6 3.6 3.6a4 4 0 0 0 3-1.2zm0-4.6V40c-.5.6-1.4 1.3-2.5 1.3q-2 0-2-1.8 0-1.5 2.1-1.6a5 5 0 0 1 2.4.5M199.7 47c3.8-.1 5-1.7 5-5v-9.8h-2.1v1A4 4 0 0 0 200 32c-2.2 0-4.2 1.7-4.2 5.4 0 4.2 1.8 5.8 4 5.8q1.7 0 2.8-1.2v.2c0 2.2-.7 3-3.6 3.2zm3-11.6v4.5q-1 1.2-2.5 1.4-2.3.1-2.3-4 0-3.4 2.3-3.4c1 0 2 .8 2.4 1.5M216.2 38.2v-.8c0-3-1.4-5.4-4.4-5.4-2.7 0-4.6 2-4.6 5.6s2 5.6 4.5 5.6q2.3 0 3.6-1.4l-1.2-1.3q-1 .8-2.3.8c-1.2 0-2.4-.9-2.6-3h7m-4.6-4.3c1.7 0 2.4 1.2 2.5 2.7h-4.9q.3-2.6 2.4-2.7" clip-rule="evenodd"/><path fill="#131313" d="m225 32.4-.5 2a3 3 0 0 0-1.6-.3q-2 0-2 2.7V43h-2.1V32.2h2v1q.8-1.1 2.4-1.2a3 3 0 0 1 1.8.4"/><path fill="#131313" fill-rule="evenodd" d="M30.8 23.4a16 16 0 0 1-5 17A15.8 15.8 0 0 1 0 28.2V2.9L5.7 0v16q4.3-3.6 10-3.7a16 16 0 0 1 15.1 11m-15 14.8a10 10 0 0 0 0-20.1 10 10 0 0 0 0 20.1" clip-rule="evenodd"/><path fill="#131313" d="M68 23.4a12 12 0 0 0-21-7 12 12 0 0 0-19.3 1.4 16 16 0 0 1 3.8 9.4v-3a6.3 6.3 0 1 1 12.5 0v11.3a2.9 2.9 0 1 0 5.8 0V24.2c0-3.5 2.8-6.3 6.2-6.3s6.1 2.7 6.3 6v19.5l5.7-3z"/><path fill="#A3A3A3" d="M29.1 16q-.8.7-1.4 1.8 3.3 3.7 3.8 8.9v-2.5q0-2.4 1.7-4.2-1.8-2.3-4-4" opacity=".5"/><path fill="#E6007A" d="M25.8 28.2v.4a10 10 0 0 1-10 9.6c-5.4 0-10-4.5-10-10a10 10 0 0 1 10-10.1 10 10 0 0 1 10 10"/></svg>