<svg xmlns="http://www.w3.org/2000/svg" width="40" height="40"><g fill="#131313" fill-rule="nonzero"><path d="M24.3 16zl-.8.7-2 1.9-3.3 3-1.3 1.2a2 2 0 0 0-.6 1.4l-.2 1.5q0 .2-.2.2t-.3-.2l-.9-3.2v-.4q0-.5.5-.8l2.8-1.7 3.5-2.2L24 16h.1q0-.1.2 0"/><path d="M20 0a20 20 0 1 0 0 40 20 20 0 0 0 0-40m8.4 14.2-1 4.9-.5 2.7-1 4.7-.6 2.8c0 .5-.6.7-1 .4L22.2 28l-2.4-1.7q-.5-.4-1.1 0l-2.4 2q-.7.4-1-.3l-.8-2.5-1-3q0-.2-.2-.3l-3-1.1-1.3-.5q-.5-.2-.5-.6 0-.5.5-.6l1.7-.6 4.8-1.9 4.7-1.8 4.4-1.7 3.2-1.2q.3-.2.6 0 .3 0 .3.5 0 .8-.3 1.4"/></g></svg>