<svg xmlns="http://www.w3.org/2000/svg" id="Ebene_2" data-name="Ebene 2" viewBox="0 0 1569.7 328.3"><defs><style>.cls-2{fill:#fff}</style></defs><g id="Ebene_1-2" data-name="Ebene 1"><path d="M588.4 265.8c0 25.2-13.8 37-29 37-7.4 0-14.4-3.9-18.5-8.3v6.8h-14.3v-94.6l14.3-7.4v35.5a28 28 0 0 1 19.2-8.5c15.8 0 28.2 11.5 28.2 39.5m-14.5.4c0-18.5-5.8-26.6-16.5-26.6-6.8 0-12.9 4.6-16.6 9.4v30.9c3.2 4.3 9.9 9.7 17.2 9.7 10.3 0 16-7.9 16-23.4m94.5-2c0 24.4-14.3 38.7-33.2 38.7S603 287.6 603 264.6s14.3-38.3 32.8-38.3 32.7 15 32.7 38m-14.5.4c0-15-7.2-24.6-18.8-24.6-11 0-17.6 9.7-17.6 24.2 0 16.1 7.4 25 18.3 25s18-11.1 18-24.6m90.8 36.6h-14.4v-7c-3.6 5.3-11 8.6-18.5 8.6-17 0-26.1-11.2-26.1-33v-42H700v41.5c0 14.8 5.6 20.2 15 20.2s15.2-6.9 15.2-18.8v-43h14.4zm80.3 0h-14.3v-41.6c0-14.8-5.6-20.1-15.1-20.1s-15.2 6.8-15.2 18.7v43H766v-73.5h14.4v7c3.7-5.3 11-8.5 18.5-8.5 17 0 26.2 11.2 26.2 32.9zm57-14.5-1.8 12.7q-5.4 3.2-14 3.4c-10.3 0-16.6-6.3-16.6-19.5V241H839v-13.2h10.5v-21l14.1-7.5v28.5H882V241h-18.2v39.9c0 6.8 2.3 8.8 7.6 8.8 3.8 0 8-1.4 10.6-3m79.3-58.9-37 99.4h-15.2l10.6-27.3-27-72h15.8l12 35.9c2.2 6.4 5.7 17.4 6.5 21.4 1.3-4.3 4.3-14.8 6.6-21.1l12.5-36.3zm152.9 73.5h-14.4v-41.6c0-14.8-4.6-20.1-14.2-20.1s-14.1 6.8-14.1 18.7v43H1057v-41.6c0-14.8-4.7-20.1-14.2-20.1s-14.1 6.8-14.1 18.7v43h-14.4v-73.5h14.4v7c3.6-5.3 10-8.5 17.5-8.5 10 0 16.2 3.8 20.1 10.8a26 26 0 0 1 22.6-10.8q25.3.2 25.2 32.9zm77 0H1177V294a29 29 0 0 1-20.2 8.9c-12 0-25.5-6.8-25.5-24.8 0-16.4 12.6-23.8 29.3-23.8q10.3 0 16.3 2.8v-5.5c0-8-4.9-12.4-13.8-12.4a37 37 0 0 0-19.2 4.6l-5.6-11c7-4.3 14.8-6.5 25.2-6.5 16.4 0 27.6 8 27.6 24.6zm-14.1-20.8V270c-4-2-9-3.3-16.8-3.3-9.3 0-15.2 4.2-15.2 11 0 7.2 4.7 12.1 14.2 12.1 7.7 0 14.4-4.7 17.8-9.3m93.9 20.8h-14.4v-41.6c0-14.8-5.6-20.1-15.1-20.1s-15.2 6.8-15.2 18.7v43H1212v-73.5h14.4v7c3.7-5.3 11-8.5 18.5-8.5 17 0 26.2 11.2 26.2 32.9zm77 0h-14.1V294a29 29 0 0 1-20.2 8.9c-12 0-25.5-6.8-25.5-24.8 0-16.4 12.6-23.8 29.3-23.8q10.3 0 16.3 2.8v-5.5c0-8-4.9-12.4-13.8-12.4a37 37 0 0 0-19.2 4.6l-5.6-11c7-4.3 14.8-6.5 25.2-6.5 16.4 0 27.6 8 27.6 24.6zm-14.1-20.8V270c-4-2-9-3.3-16.9-3.3-9.2 0-15 4.2-15 11 0 7.2 4.6 12.1 14 12.1 7.8 0 14.5-4.7 17.9-9.3m93.3 13.8c0 22.4-8.1 33.2-34.7 34l-4.9-10.9c20.7-1 25.2-6.6 25.2-21.8v-1.3a28 28 0 0 1-19 8.6c-15.7 0-28.3-11.5-28.3-39.5 0-25.2 13.8-37.1 29-37.1 7.4 0 14.4 3.9 18.3 8.4v-6.9h14.4zm-14.1-14.1v-31c-3.2-4.3-10-9.6-17.2-9.6q-15.8 0-16 23.4c0 18.4 5.9 26.6 16.5 26.6 6.9 0 12.9-4.7 16.7-9.4m95-17.1q0 4.1-.4 6.6h-48.6c1.6 14.1 9.6 20.1 18.5 20.1 6.2 0 11-2.2 16-5.8l8.5 9.2a34 34 0 0 1-25.3 9.7c-17.2 0-31.8-13.9-31.8-38.3s13.2-38.3 32.2-38.3c20.9 0 31 17 31 36.8m-14.5-5.3c-.7-10.1-5.5-18.5-17.4-18.5-9.6 0-15.5 6.7-16.8 18.5zm76-28.4L1566 243a21 21 0 0 0-11.1-2.7c-9.1 0-14.4 6.5-14.4 19v42H1526v-73.6h14.4v7c3.3-4.9 9.5-8.5 16.8-8.5 5.9 0 9.5 1.1 12.4 3M219.8 188.6a109 109 0 0 0-26.9-65.1A109.7 109.7 0 0 0 40 110.7V0h-.2L0 20.3v175.4a110.1 110.1 0 0 0 212.9 39 109 109 0 0 0 6.9-46M179.9 199c-1.7 37-32.4 66.7-69.9 66.7s-70-31.4-70-70a70 70 0 1 1 140 3.3" class="cls-2"/><path d="M473.6 162.4A83.5 83.5 0 0 0 327 114a83.3 83.3 0 0 0-134 9.4 110 110 0 0 1 26.9 65.1v-20.4a43.6 43.6 0 0 1 87.2 0v78.2a20 20 0 1 0 39.8 0v-78.2a43.6 43.6 0 0 1 87.1-2.3v135.4h.5l39.4-20z" class="cls-2"/><path d="M202.9 111q-5.5 5.7-9.9 12.5c14.8 17 24.5 38.4 26.7 62v-17c0-11.3 4.3-21.6 11.3-29.3a131 131 0 0 0-28.2-28.2" style="fill:#878787;opacity:.5"/><path d="M180 195.7v3.3c-1.8 37-32.5 66.7-70 66.7s-70-31.4-70-70a70 70 0 0 1 140 0" style="fill:#e6007a"/></g></svg>