<svg xmlns="http://www.w3.org/2000/svg" width="49" height="11"><g fill="#E4E4E4" fill-rule="nonzero"><path d="m23.6 8.7-.5.8-.9.8c-.6.3-1.6.3-1.9-.7L20 8v-.3q0-.2-.2 0l-1.1 1-.3 1.1q-.3.7-1 .6-.5-.3-.4-1l.7-3 1-5.2.2-.4q.3-.5.8-.4.6.2.5.9l-.6 2.9-.5 2.1v.1l.6-.4 2.6-2.2q.2-.2.4-.3.5 0 .7.2.3.3 0 .8L23 5l-2 1.8.4 1.8q.1.6.7.2l.9-1.1 1.3-2.2q.9-1.6 2.7-2a3 3 0 0 1 2.2.4q.5.3.6.8v.7l-.5 2.2v1.4q.3 0 .5-.2l.5-.7.8-1.9q.5-1.6 2-2.4 1.2-.6 2.3-.1.3 0 .5.3L36 4l.7-3q.4-.7 1-.4.3 0 .3.5l-.1 1-1.1 5.3q-.1.6-.1 1.2l.1.4q.3 0 .4 0l.7-1v-.3q.2-2.5 2.2-3.7 1.2-.8 2.5-.2 1.3.5 1.4 2 .2 2.5-1.7 4-1.2 1-2.9.5-.6-.2-1-.7 0-.3-.2 0-.5.7-1.4.9-.7.1-1.2-.4-.3-.4-.3-1V9l-.5.7q-1 1-2.3.9-1-.3-1.4-1.2l-.1-.1-.1.1q-.4.8-1.1 1-.6.3-1 .1-.7-.3-.8-1v-.3l-.4.4q-1 1.2-2.3 1-1.2-.3-1.6-1.5zm8.7-.9v.6q.1.6.7.7l.7-.1 1-.8a7 7 0 0 0 1-2.8v-.2q-1-.6-2.1 0-1.4 1-1.3 2.6m-7.2 0v.4q0 .8.7.9.4 0 1-.2a3 3 0 0 0 1-1.5q.4-1 .6-2V5q-1-.5-2 0-1.3 1-1.3 2.7m14.4 0V8q0 .8.7 1 .6 0 1.2-.3 1.3-1 1.1-2.9 0-.6-.6-.9-.8-.1-1.3.3-1.2 1-1.1 2.5M3.6.5a4 4 0 0 1 1.8.4q1.4.6 1.6 2.3a4 4 0 0 1-.5 2.5q-.8 1.4-2.2 1.7-1.2.3-2.5 0l-.1.2-.5 2.4q-.2.7-1 .4L0 9.7l.3-1.6 1.3-6.6q0-.8.7-.9zm-.8 5.7 1-.1q1.6-.3 2-2 0-1.8-1.4-2.2H2.9q-.2 0-.2.2l-.2 1L2 6l.1.2zM7 7.8Q7.1 5.3 9 4q1.2-.6 2.4-.3 1.4.5 1.6 2 .1 2.5-1.5 4-1.2 1.2-2.7.8T7 8.6zM10.5 5q-.6 0-1 .4l-.8 1.3a3 3 0 0 0-.2 1.7q.2.7.8.8.6 0 1.1-.3 1.3-1.2 1.1-3-.1-.9-1-.9M47.5 5.7h-.9L46 8.4v.5q.1.6.8.4.3 0 .5-.3l.7-.6.5-.2q.6.2.5.7 0 .3-.4.6-.7.9-2 1-1.7.3-2-1.3-.1-.7.1-1.6l.4-1.7-.1-.1h-.5q-.3 0-.5-.4 0-.4.2-.6t.6-.2h.5l.2-.1.2-1.2.2-.4q.3-.4.9-.3.4.2.4.6L47 4.3q0 .3.2.2h1q.7 0 .7.4 0 .6-.6.7zM16.3.5q.8 0 .7.9l-.6 3.1-1.1 5.5q-.2.6-.8.5-.6-.2-.5-.9l.5-2.5 1.2-5.9.1-.5z"/></g></svg>